<?xml version="1.0" standalone="no"?>
<!DOCTYPE svg PUBLIC "-//W3C//DTD SVG 20010904//EN"
 "http://www.w3.org/TR/2001/REC-SVG-20010904/DTD/svg10.dtd">
<svg version="1.0" xmlns="http://www.w3.org/2000/svg"
 width="500.000000pt" height="500.000000pt" viewBox="0 0 500.000000 500.000000"
 preserveAspectRatio="xMidYMid meet">

<g transform="translate(0.000000,500.000000) scale(0.100000,-0.100000)"
fill="#000000" stroke="none">
<path d="M2405 4584 c-276 -40 -500 -204 -600 -439 -48 -113 -57 -171 -62
-420 -5 -234 -6 -241 -28 -265 -71 -76 -41 -215 56 -265 36 -19 122 -19 158 0
87 44 120 154 73 242 -14 26 -65 70 -92 78 -19 6 -20 15 -20 208 0 226 10 289
63 396 43 90 168 215 257 258 229 112 481 75 663 -96 79 -74 136 -166 166
-265 18 -60 21 -94 21 -281 l0 -212 -39 -26 c-44 -29 -81 -96 -81 -147 0 -46
33 -111 72 -141 45 -33 162 -35 205 -3 87 65 97 201 19 273 l-26 24 0 191 c0
223 -15 330 -60 438 -110 266 -348 434 -640 452 -41 2 -88 2 -105 0z"/>
<path d="M1225 3505 c-48 -17 -103 -76 -110 -119 -5 -33 -28 -325 -70 -911
-14 -192 -34 -471 -45 -620 -90 -1221 -95 -1300 -80 -1335 18 -44 68 -88 112
-100 23 -7 544 -9 1490 -8 l1453 3 38 24 c21 13 47 41 59 65 21 40 21 44 9
241 -7 110 -16 250 -21 310 -5 61 -19 238 -30 395 -11 157 -31 440 -45 630
-14 190 -32 440 -40 555 -14 200 -38 520 -51 687 -5 64 -11 85 -35 118 -48 66
-73 74 -246 78 -84 2 -153 2 -153 -1 0 -2 9 -30 20 -62 12 -34 20 -84 20 -122
l0 -63 89 0 89 0 6 -62 c3 -35 15 -193 26 -353 47 -663 102 -1432 135 -1876
14 -185 25 -339 25 -342 0 -4 -615 -6 -1367 -5 l-1367 3 2 60 c2 33 14 211 27
395 14 184 34 466 45 625 12 160 30 407 40 550 10 143 22 303 25 355 4 52 15
207 26 344 10 137 19 262 19 278 l0 28 68 0 67 0 2 73 c0 41 8 90 17 111 28
67 28 66 -96 66 -70 -1 -128 -6 -153 -15z"/>
<path d="M2205 3503 c19 -49 35 -133 35 -180 l0 -53 239 0 239 0 0 68 c1 39 9
91 21 125 l20 57 -281 0 c-263 0 -280 -1 -273 -17z"/>
<path d="M2450 2514 c-267 -25 -444 -82 -558 -180 -93 -79 -144 -202 -145
-346 0 -75 -3 -89 -18 -93 -10 -4 -30 -20 -44 -36 -44 -53 -27 -139 28 -139
21 0 21 1 2 -43 -8 -20 -15 -54 -15 -75 0 -42 17 -64 63 -81 26 -10 27 -12 13
-33 -19 -30 -8 -241 15 -276 38 -61 120 -76 519 -93 237 -10 304 -9 485 5 116
9 228 21 250 27 89 25 127 81 127 184 0 50 4 67 19 81 10 9 19 26 19 36 0 11
16 34 35 52 40 38 48 91 18 119 -14 12 -17 28 -15 65 3 43 7 51 27 56 36 9 55
34 55 72 0 51 -24 90 -68 110 l-39 17 -6 86 c-6 82 -27 163 -60 227 -24 47
-102 129 -155 163 -119 76 -341 114 -552 95z m376 -92 c190 -61 313 -186 343
-347 18 -94 15 -132 -11 -149 -19 -11 -131 -15 -618 -20 -617 -7 -713 -3 -738
31 -23 30 -9 143 27 219 69 148 231 238 501 280 128 20 417 12 496 -14z m425
-559 c33 -20 45 -43 27 -54 -6 -4 -98 -6 -202 -4 -156 2 -200 0 -238 -13 -44
-15 -50 -15 -98 2 -49 17 -53 18 -96 1 -47 -18 -87 -16 -162 6 -35 11 -50 11
-90 0 -83 -24 -110 -24 -163 -2 l-50 22 -59 -27 c-62 -28 -83 -28 -153 -2 -34
13 -48 13 -130 -4 -69 -14 -97 -17 -115 -9 -19 9 -21 14 -12 31 20 37 65 52
123 41 94 -18 246 -21 783 -13 475 6 533 9 555 24 31 22 44 22 80 1z m-1264
-133 c47 -25 76 -25 132 0 44 20 92 26 105 13 4 -5 22 -13 39 -19 l31 -10 -78
-62 c-43 -34 -82 -62 -85 -62 -4 0 -29 14 -55 30 -26 17 -84 49 -128 71 -60
30 -77 43 -67 50 23 15 67 10 106 -11z m961 11 c9 -5 2 -15 -25 -33 -21 -14
-60 -44 -88 -67 -27 -22 -56 -41 -63 -41 -8 0 -55 24 -106 53 l-92 52 58 19
c57 18 72 18 134 -2 23 -7 42 -5 80 8 55 20 83 24 102 11z m256 -11 c7 -7 7
-26 -1 -62 -10 -49 -9 -53 16 -76 25 -23 25 -24 6 -38 -10 -8 -25 -14 -33 -14
-8 0 -34 -10 -59 -22 -40 -20 -48 -21 -92 -9 -36 9 -55 10 -70 2 -29 -16 -79
-13 -110 5 -25 15 -30 15 -59 0 -36 -18 -84 -21 -113 -5 -14 7 -30 7 -57 -2
-46 -15 -75 -14 -106 6 -20 14 -27 14 -66 0 -55 -19 -85 -19 -121 2 -28 17
-31 17 -74 -7 -43 -23 -45 -24 -79 -7 -32 15 -39 15 -77 2 -54 -19 -52 -19
-89 11 -30 26 -31 26 -73 10 -58 -22 -116 -21 -123 2 -11 36 -22 47 -49 52
-41 7 -54 33 -33 67 9 16 27 36 41 46 23 18 24 18 126 -37 56 -31 125 -72 154
-91 28 -19 59 -35 69 -35 9 0 65 40 125 88 59 49 122 97 140 107 l32 19 56
-40 c101 -72 260 -164 283 -164 33 0 59 16 127 77 33 30 92 73 130 94 62 36
75 39 119 35 27 -3 54 -10 60 -16z m-1199 -270 c25 -27 76 -35 111 -17 25 13
32 13 47 2 17 -12 17 -14 -5 -21 -13 -4 -82 -7 -153 -7 -130 1 -215 14 -215
35 0 6 9 8 23 3 49 -16 83 -15 122 4 51 25 49 25 70 1z m323 -2 c7 -7 36 -15
65 -19 41 -5 31 -6 -48 -7 -66 0 -93 2 -79 8 12 5 25 13 29 19 8 14 18 14 33
-1z m630 -16 c30 9 55 12 63 7 8 -5 25 -9 39 -10 14 -1 0 -5 -30 -9 -70 -10
-404 -12 -413 -3 -4 4 6 12 22 19 25 11 37 10 69 -3 36 -14 43 -14 83 4 43 19
44 19 80 -1 35 -19 39 -20 87 -4z m202 13 c-7 -8 -17 -15 -23 -15 -6 0 -2 7 9
15 25 19 30 19 14 0z m-645 -55 c3 -6 26 -15 51 -21 39 -10 44 -15 44 -39 0
-55 -12 -90 -31 -90 -23 0 -32 14 -44 75 -12 61 -37 71 -70 29 -14 -18 -27
-25 -38 -21 -28 11 -20 37 13 43 16 4 35 13 41 20 14 17 25 18 34 4z m-404
-32 l267 2 7 -28 c8 -31 33 -62 50 -62 7 0 24 9 38 20 34 27 37 26 37 -13 0
-57 51 -108 89 -87 23 12 32 36 40 107 l6 53 225 3 c124 3 233 8 243 12 15 6
17 1 17 -34 0 -53 -22 -96 -58 -115 -71 -36 -404 -55 -772 -44 -441 14 -499
32 -500 156 0 41 1 43 23 36 12 -5 142 -7 288 -6z"/>
</g>
</svg>
