<svg xmlns="http://www.w3.org/2000/svg" version="1.0" preserveAspectRatio="xMidYMid meet" viewBox="61.91 17.4 206.08 240.1">

<g transform="translate(0.000000,276.000000) scale(0.100000,-0.100000)" fill="#000000" stroke="none">
<path d="M1600 2584 c-190 -31 -310 -92 -423 -214 -304 -328 -205 -854 198 -1050 156 -76 325 -88 490 -36 112 36 195 88 280 177 132 139 193 302 182 493 -10 177 -70 311 -197 437 -83 83 -192 146 -301 173 -61 15 -189 27 -229 20z"/>
<path d="M931 1345 c-111 -83 -176 -153 -234 -248 -106 -174 -104 -384 7 -612 76 -154 180 -243 329 -281 66 -17 120 -19 632 -19 559 0 560 0 635 23 105 33 162 66 224 132 67 70 101 137 132 258 54 213 18 375 -124 553 -53 67 -164 168 -250 228 l-33 23 -47 -44 c-231 -215 -553 -276 -833 -157 -107 46 -227 120 -300 186 l-37 34 -101 -76z"/>
</g>
</svg>